<mxfile host="app.diagrams.net" modified="2021-12-21T15:40:01.658Z" agent="5.0 (Windows NT 10.0; Win64; x64) AppleWebKit/537.36 (KHTML, like Gecko) Chrome/93.0.4577.82 Safari/537.36" etag="0VaVwPfYL5EqXJZ0PAvg" version="16.0.0" type="github">
  <diagram id="1pqTgRQ1lFdRqX3gHUx0" name="第 1 页">
    <mxGraphModel dx="1886" dy="810" grid="1" gridSize="10" guides="1" tooltips="1" connect="1" arrows="1" fold="1" page="1" pageScale="1" pageWidth="827" pageHeight="1169" background="#ffffff" math="0" shadow="0">
      <root>
        <mxCell id="0" />
        <mxCell id="1" parent="0" />
        <mxCell id="qRS98BWadA9C0YuERfwC-4" value="" style="shape=cube;whiteSpace=wrap;html=1;boundedLbl=1;backgroundOutline=1;darkOpacity=0.05;darkOpacity2=0.1;shadow=0;sketch=0;strokeWidth=1;size=10;fillColor=#f8cecc;strokeColor=#b85450;" parent="1" vertex="1">
          <mxGeometry x="200" y="200" width="120" height="50" as="geometry" />
        </mxCell>
        <mxCell id="qRS98BWadA9C0YuERfwC-10" value="" style="endArrow=none;html=1;rounded=0;sketch=0;strokeWidth=1;exitX=0.246;exitY=0;exitDx=0;exitDy=0;exitPerimeter=0;fillColor=#f8cecc;strokeColor=#b85450;" parent="1" source="qRS98BWadA9C0YuERfwC-4" edge="1">
          <mxGeometry width="50" height="50" relative="1" as="geometry">
            <mxPoint x="249" y="200" as="sourcePoint" />
            <mxPoint x="240" y="210" as="targetPoint" />
          </mxGeometry>
        </mxCell>
        <mxCell id="qRS98BWadA9C0YuERfwC-12" value="" style="endArrow=none;html=1;rounded=0;sketch=0;strokeWidth=1;fillColor=#f8cecc;strokeColor=#b85450;" parent="1" edge="1">
          <mxGeometry width="50" height="50" relative="1" as="geometry">
            <mxPoint x="240" y="250" as="sourcePoint" />
            <mxPoint x="240" y="210" as="targetPoint" />
          </mxGeometry>
        </mxCell>
        <mxCell id="qRS98BWadA9C0YuERfwC-13" value="" style="endArrow=none;html=1;rounded=0;sketch=0;strokeWidth=1;entryX=0;entryY=0;entryDx=120;entryDy=30;entryPerimeter=0;fillColor=#f8cecc;strokeColor=#b85450;" parent="1" target="qRS98BWadA9C0YuERfwC-4" edge="1">
          <mxGeometry width="50" height="50" relative="1" as="geometry">
            <mxPoint x="240" y="230" as="sourcePoint" />
            <mxPoint x="370" y="170" as="targetPoint" />
          </mxGeometry>
        </mxCell>
        <mxCell id="qRS98BWadA9C0YuERfwC-35" style="edgeStyle=orthogonalEdgeStyle;rounded=1;sketch=0;jumpStyle=line;orthogonalLoop=1;jettySize=auto;html=1;exitX=1;exitY=0.5;exitDx=0;exitDy=0;entryX=0;entryY=0;entryDx=0;entryDy=20;entryPerimeter=0;fontFamily=Comic Sans MS;startArrow=oval;startFill=1;strokeColor=#000A20;strokeWidth=1;shadow=0;targetPerimeterSpacing=0;endSize=6;startSize=6;" parent="1" source="qRS98BWadA9C0YuERfwC-14" target="qRS98BWadA9C0YuERfwC-17" edge="1">
          <mxGeometry relative="1" as="geometry" />
        </mxCell>
        <mxCell id="qRS98BWadA9C0YuERfwC-14" value="&lt;font face=&quot;Comic Sans MS&quot; color=&quot;#ea6b66&quot;&gt;next&lt;/font&gt;" style="text;html=1;strokeColor=none;fillColor=none;align=center;verticalAlign=middle;whiteSpace=wrap;rounded=0;shadow=0;sketch=0;" parent="1" vertex="1">
          <mxGeometry x="240" y="210" width="70" height="20" as="geometry" />
        </mxCell>
        <mxCell id="qRS98BWadA9C0YuERfwC-65" style="edgeStyle=orthogonalEdgeStyle;rounded=1;sketch=0;jumpStyle=none;orthogonalLoop=1;jettySize=auto;html=1;exitX=1;exitY=0.5;exitDx=0;exitDy=0;entryX=0;entryY=0;entryDx=30;entryDy=50;entryPerimeter=0;shadow=0;fontFamily=Comic Sans MS;fontColor=#EA6B66;startArrow=oval;startFill=1;startSize=6;endSize=6;targetPerimeterSpacing=0;strokeColor=#666666;strokeWidth=1;fillColor=#f5f5f5;" parent="1" source="qRS98BWadA9C0YuERfwC-15" target="qRS98BWadA9C0YuERfwC-61" edge="1">
          <mxGeometry relative="1" as="geometry">
            <Array as="points">
              <mxPoint x="310" y="310" />
              <mxPoint x="710" y="310" />
            </Array>
          </mxGeometry>
        </mxCell>
        <mxCell id="qRS98BWadA9C0YuERfwC-15" value="&lt;font color=&quot;#ea6b66&quot;&gt;random&lt;/font&gt;" style="text;html=1;strokeColor=none;fillColor=none;align=center;verticalAlign=middle;whiteSpace=wrap;rounded=0;shadow=0;sketch=0;fontFamily=Comic Sans MS;" parent="1" vertex="1">
          <mxGeometry x="240" y="230" width="70" height="20" as="geometry" />
        </mxCell>
        <mxCell id="qRS98BWadA9C0YuERfwC-16" value="&lt;font color=&quot;#ea6b66&quot;&gt;7&lt;/font&gt;" style="text;html=1;strokeColor=none;fillColor=none;align=center;verticalAlign=middle;whiteSpace=wrap;rounded=0;shadow=0;sketch=0;fontFamily=Comic Sans MS;" parent="1" vertex="1">
          <mxGeometry x="210" y="210" width="30" height="40" as="geometry" />
        </mxCell>
        <mxCell id="qRS98BWadA9C0YuERfwC-17" value="" style="shape=cube;whiteSpace=wrap;html=1;boundedLbl=1;backgroundOutline=1;darkOpacity=0.05;darkOpacity2=0.1;shadow=0;sketch=0;strokeWidth=1;size=10;fillColor=#f8cecc;strokeColor=#b85450;" parent="1" vertex="1">
          <mxGeometry x="360" y="200" width="120" height="50" as="geometry" />
        </mxCell>
        <mxCell id="qRS98BWadA9C0YuERfwC-18" value="" style="endArrow=none;html=1;rounded=0;sketch=0;strokeWidth=1;exitX=0.246;exitY=0;exitDx=0;exitDy=0;exitPerimeter=0;fillColor=#f8cecc;strokeColor=#b85450;" parent="1" source="qRS98BWadA9C0YuERfwC-17" edge="1">
          <mxGeometry width="50" height="50" relative="1" as="geometry">
            <mxPoint x="409" y="200" as="sourcePoint" />
            <mxPoint x="400" y="210.00000000000006" as="targetPoint" />
          </mxGeometry>
        </mxCell>
        <mxCell id="qRS98BWadA9C0YuERfwC-19" value="" style="endArrow=none;html=1;rounded=0;sketch=0;strokeWidth=1;fillColor=#f8cecc;strokeColor=#b85450;" parent="1" edge="1">
          <mxGeometry width="50" height="50" relative="1" as="geometry">
            <mxPoint x="400" y="250" as="sourcePoint" />
            <mxPoint x="400" y="210.00000000000006" as="targetPoint" />
          </mxGeometry>
        </mxCell>
        <mxCell id="qRS98BWadA9C0YuERfwC-20" value="" style="endArrow=none;html=1;rounded=0;sketch=0;strokeWidth=1;entryX=0;entryY=0;entryDx=120;entryDy=30;entryPerimeter=0;fillColor=#f8cecc;strokeColor=#b85450;" parent="1" target="qRS98BWadA9C0YuERfwC-17" edge="1">
          <mxGeometry width="50" height="50" relative="1" as="geometry">
            <mxPoint x="400" y="230.00000000000006" as="sourcePoint" />
            <mxPoint x="530" y="170" as="targetPoint" />
          </mxGeometry>
        </mxCell>
        <mxCell id="qRS98BWadA9C0YuERfwC-45" style="edgeStyle=orthogonalEdgeStyle;rounded=1;sketch=0;jumpStyle=line;orthogonalLoop=1;jettySize=auto;html=1;exitX=1;exitY=0.5;exitDx=0;exitDy=0;entryX=0;entryY=0;entryDx=0;entryDy=20;entryPerimeter=0;shadow=0;fontFamily=Comic Sans MS;fontColor=#EA6B66;startArrow=oval;startFill=1;startSize=6;endSize=6;targetPerimeterSpacing=0;strokeColor=#000A20;strokeWidth=1;" parent="1" source="qRS98BWadA9C0YuERfwC-21" target="qRS98BWadA9C0YuERfwC-38" edge="1">
          <mxGeometry relative="1" as="geometry" />
        </mxCell>
        <mxCell id="qRS98BWadA9C0YuERfwC-21" value="&lt;font face=&quot;Comic Sans MS&quot; color=&quot;#ea6b66&quot;&gt;next&lt;/font&gt;" style="text;html=1;strokeColor=none;fillColor=none;align=center;verticalAlign=middle;whiteSpace=wrap;rounded=0;shadow=0;sketch=0;" parent="1" vertex="1">
          <mxGeometry x="400" y="210" width="70" height="20" as="geometry" />
        </mxCell>
        <mxCell id="qRS98BWadA9C0YuERfwC-37" style="edgeStyle=orthogonalEdgeStyle;rounded=1;sketch=0;jumpStyle=none;orthogonalLoop=1;jettySize=auto;html=1;exitX=1;exitY=0.5;exitDx=0;exitDy=0;entryX=0.5;entryY=1;entryDx=0;entryDy=0;shadow=0;fontFamily=Comic Sans MS;fontColor=#EA6B66;startArrow=oval;startFill=1;startSize=6;endSize=6;targetPerimeterSpacing=0;strokeColor=#666666;strokeWidth=1;fillColor=#f5f5f5;" parent="1" source="qRS98BWadA9C0YuERfwC-22" target="qRS98BWadA9C0YuERfwC-16" edge="1">
          <mxGeometry relative="1" as="geometry">
            <Array as="points">
              <mxPoint x="470" y="270" />
              <mxPoint x="225" y="270" />
            </Array>
          </mxGeometry>
        </mxCell>
        <mxCell id="qRS98BWadA9C0YuERfwC-22" value="&lt;font color=&quot;#ea6b66&quot;&gt;random&lt;/font&gt;" style="text;html=1;strokeColor=none;fillColor=none;align=center;verticalAlign=middle;whiteSpace=wrap;rounded=0;shadow=0;sketch=0;fontFamily=Comic Sans MS;" parent="1" vertex="1">
          <mxGeometry x="400" y="230" width="70" height="20" as="geometry" />
        </mxCell>
        <mxCell id="qRS98BWadA9C0YuERfwC-23" value="&lt;font color=&quot;#ea6b66&quot;&gt;13&lt;/font&gt;" style="text;html=1;strokeColor=none;fillColor=none;align=center;verticalAlign=middle;whiteSpace=wrap;rounded=0;shadow=0;sketch=0;fontFamily=Comic Sans MS;" parent="1" vertex="1">
          <mxGeometry x="370" y="210" width="30" height="40" as="geometry" />
        </mxCell>
        <mxCell id="qRS98BWadA9C0YuERfwC-38" value="" style="shape=cube;whiteSpace=wrap;html=1;boundedLbl=1;backgroundOutline=1;darkOpacity=0.05;darkOpacity2=0.1;shadow=0;sketch=0;strokeWidth=1;size=10;fillColor=#f8cecc;strokeColor=#b85450;" parent="1" vertex="1">
          <mxGeometry x="520" y="200" width="120" height="50" as="geometry" />
        </mxCell>
        <mxCell id="qRS98BWadA9C0YuERfwC-39" value="" style="endArrow=none;html=1;rounded=0;sketch=0;strokeWidth=1;exitX=0.246;exitY=0;exitDx=0;exitDy=0;exitPerimeter=0;fillColor=#f8cecc;strokeColor=#b85450;" parent="1" source="qRS98BWadA9C0YuERfwC-38" edge="1">
          <mxGeometry width="50" height="50" relative="1" as="geometry">
            <mxPoint x="569" y="200" as="sourcePoint" />
            <mxPoint x="559.9999999999998" y="210" as="targetPoint" />
          </mxGeometry>
        </mxCell>
        <mxCell id="qRS98BWadA9C0YuERfwC-40" value="" style="endArrow=none;html=1;rounded=0;sketch=0;strokeWidth=1;fillColor=#f8cecc;strokeColor=#b85450;" parent="1" edge="1">
          <mxGeometry width="50" height="50" relative="1" as="geometry">
            <mxPoint x="559.9999999999998" y="250" as="sourcePoint" />
            <mxPoint x="559.9999999999998" y="210" as="targetPoint" />
          </mxGeometry>
        </mxCell>
        <mxCell id="qRS98BWadA9C0YuERfwC-41" value="" style="endArrow=none;html=1;rounded=0;sketch=0;strokeWidth=1;entryX=0;entryY=0;entryDx=120;entryDy=30;entryPerimeter=0;fillColor=#f8cecc;strokeColor=#b85450;" parent="1" target="qRS98BWadA9C0YuERfwC-38" edge="1">
          <mxGeometry width="50" height="50" relative="1" as="geometry">
            <mxPoint x="559.9999999999998" y="230" as="sourcePoint" />
            <mxPoint x="690" y="170" as="targetPoint" />
          </mxGeometry>
        </mxCell>
        <mxCell id="qRS98BWadA9C0YuERfwC-42" value="&lt;font face=&quot;Comic Sans MS&quot; color=&quot;#ea6b66&quot;&gt;next&lt;/font&gt;" style="text;html=1;strokeColor=none;fillColor=none;align=center;verticalAlign=middle;whiteSpace=wrap;rounded=0;shadow=0;sketch=0;" parent="1" vertex="1">
          <mxGeometry x="560" y="210" width="70" height="20" as="geometry" />
        </mxCell>
        <mxCell id="qRS98BWadA9C0YuERfwC-66" style="edgeStyle=orthogonalEdgeStyle;rounded=1;sketch=0;jumpStyle=none;orthogonalLoop=1;jettySize=auto;html=1;exitX=1;exitY=0.5;exitDx=0;exitDy=0;entryX=0.5;entryY=1;entryDx=0;entryDy=0;shadow=0;fontFamily=Comic Sans MS;fontColor=#EA6B66;startArrow=oval;startFill=1;startSize=6;endSize=6;targetPerimeterSpacing=0;strokeColor=#666666;strokeWidth=1;fillColor=#f5f5f5;" parent="1" source="qRS98BWadA9C0YuERfwC-43" target="qRS98BWadA9C0YuERfwC-23" edge="1">
          <mxGeometry relative="1" as="geometry">
            <mxPoint x="864.9999999999995" y="250" as="targetPoint" />
            <Array as="points">
              <mxPoint x="630" y="290" />
              <mxPoint x="385" y="290" />
            </Array>
          </mxGeometry>
        </mxCell>
        <mxCell id="qRS98BWadA9C0YuERfwC-43" value="&lt;font color=&quot;#ea6b66&quot;&gt;random&lt;/font&gt;" style="text;html=1;strokeColor=none;fillColor=none;align=center;verticalAlign=middle;whiteSpace=wrap;rounded=0;shadow=0;sketch=0;fontFamily=Comic Sans MS;" parent="1" vertex="1">
          <mxGeometry x="560" y="230" width="70" height="20" as="geometry" />
        </mxCell>
        <mxCell id="qRS98BWadA9C0YuERfwC-44" value="&lt;font color=&quot;#ea6b66&quot;&gt;11&lt;/font&gt;" style="text;html=1;strokeColor=none;fillColor=none;align=center;verticalAlign=middle;whiteSpace=wrap;rounded=0;shadow=0;sketch=0;fontFamily=Comic Sans MS;" parent="1" vertex="1">
          <mxGeometry x="530" y="210" width="30" height="40" as="geometry" />
        </mxCell>
        <mxCell id="qRS98BWadA9C0YuERfwC-64" style="edgeStyle=orthogonalEdgeStyle;rounded=1;sketch=0;jumpStyle=line;orthogonalLoop=1;jettySize=auto;html=1;exitX=1;exitY=0.5;exitDx=0;exitDy=0;entryX=0;entryY=0;entryDx=0;entryDy=20;entryPerimeter=0;shadow=0;fontFamily=Comic Sans MS;fontColor=#EA6B66;startArrow=oval;startFill=1;startSize=6;endSize=6;targetPerimeterSpacing=0;strokeColor=#000A20;strokeWidth=1;" parent="1" target="qRS98BWadA9C0YuERfwC-61" edge="1">
          <mxGeometry relative="1" as="geometry">
            <mxPoint x="629.9999999999995" y="220" as="sourcePoint" />
          </mxGeometry>
        </mxCell>
        <mxCell id="qRS98BWadA9C0YuERfwC-61" value="null" style="shape=cube;whiteSpace=wrap;html=1;boundedLbl=1;backgroundOutline=1;darkOpacity=0.05;darkOpacity2=0.1;shadow=0;sketch=0;fontFamily=Comic Sans MS;fontColor=#333333;strokeColor=#666666;strokeWidth=1;size=10;fillColor=#f5f5f5;" parent="1" vertex="1">
          <mxGeometry x="680" y="200" width="50" height="50" as="geometry" />
        </mxCell>
        <mxCell id="qRS98BWadA9C0YuERfwC-69" value="" style="shape=cube;whiteSpace=wrap;html=1;boundedLbl=1;backgroundOutline=1;darkOpacity=0.05;darkOpacity2=0.1;shadow=0;sketch=0;strokeWidth=1;size=10;fillColor=#f8cecc;strokeColor=#b85450;" parent="1" vertex="1">
          <mxGeometry x="200" y="440" width="120" height="50" as="geometry" />
        </mxCell>
        <mxCell id="qRS98BWadA9C0YuERfwC-70" value="" style="endArrow=none;html=1;rounded=0;sketch=0;strokeWidth=1;exitX=0.246;exitY=0;exitDx=0;exitDy=0;exitPerimeter=0;fillColor=#f8cecc;strokeColor=#b85450;" parent="1" source="qRS98BWadA9C0YuERfwC-69" edge="1">
          <mxGeometry width="50" height="50" relative="1" as="geometry">
            <mxPoint x="249" y="440" as="sourcePoint" />
            <mxPoint x="240" y="450" as="targetPoint" />
          </mxGeometry>
        </mxCell>
        <mxCell id="qRS98BWadA9C0YuERfwC-71" value="" style="endArrow=none;html=1;rounded=0;sketch=0;strokeWidth=1;fillColor=#f8cecc;strokeColor=#b85450;" parent="1" edge="1">
          <mxGeometry width="50" height="50" relative="1" as="geometry">
            <mxPoint x="240" y="490" as="sourcePoint" />
            <mxPoint x="240" y="450" as="targetPoint" />
          </mxGeometry>
        </mxCell>
        <mxCell id="qRS98BWadA9C0YuERfwC-72" value="" style="endArrow=none;html=1;rounded=0;sketch=0;strokeWidth=1;entryX=0;entryY=0;entryDx=120;entryDy=30;entryPerimeter=0;fillColor=#f8cecc;strokeColor=#b85450;" parent="1" target="qRS98BWadA9C0YuERfwC-69" edge="1">
          <mxGeometry width="50" height="50" relative="1" as="geometry">
            <mxPoint x="240" y="470" as="sourcePoint" />
            <mxPoint x="370" y="410" as="targetPoint" />
          </mxGeometry>
        </mxCell>
        <mxCell id="qRS98BWadA9C0YuERfwC-73" style="edgeStyle=orthogonalEdgeStyle;rounded=1;sketch=0;jumpStyle=line;orthogonalLoop=1;jettySize=auto;html=1;exitX=1;exitY=0.5;exitDx=0;exitDy=0;entryX=0;entryY=0;entryDx=0;entryDy=20;entryPerimeter=0;fontFamily=Comic Sans MS;startArrow=oval;startFill=1;strokeColor=#000A20;strokeWidth=1;shadow=0;targetPerimeterSpacing=0;endSize=6;startSize=6;" parent="1" source="qRS98BWadA9C0YuERfwC-74" target="qRS98BWadA9C0YuERfwC-115" edge="1">
          <mxGeometry relative="1" as="geometry" />
        </mxCell>
        <mxCell id="qRS98BWadA9C0YuERfwC-74" value="&lt;font face=&quot;Comic Sans MS&quot; color=&quot;#ea6b66&quot;&gt;next&lt;/font&gt;" style="text;html=1;strokeColor=none;fillColor=none;align=center;verticalAlign=middle;whiteSpace=wrap;rounded=0;shadow=0;sketch=0;" parent="1" vertex="1">
          <mxGeometry x="240" y="450" width="70" height="20" as="geometry" />
        </mxCell>
        <mxCell id="qRS98BWadA9C0YuERfwC-123" style="edgeStyle=orthogonalEdgeStyle;rounded=1;sketch=0;jumpStyle=none;orthogonalLoop=1;jettySize=auto;html=1;exitX=1;exitY=0.5;exitDx=0;exitDy=0;shadow=0;fontFamily=Comic Sans MS;fontColor=#EA6B66;startArrow=oval;startFill=1;startSize=6;endSize=6;targetPerimeterSpacing=0;strokeColor=#b85450;strokeWidth=1;entryX=0;entryY=0;entryDx=30;entryDy=50;entryPerimeter=0;fillColor=#f8cecc;" parent="1" source="qRS98BWadA9C0YuERfwC-76" target="qRS98BWadA9C0YuERfwC-114" edge="1">
          <mxGeometry relative="1" as="geometry">
            <mxPoint x="1202.7586206896551" y="520" as="targetPoint" />
            <Array as="points">
              <mxPoint x="310" y="530" />
              <mxPoint x="1190" y="530" />
            </Array>
          </mxGeometry>
        </mxCell>
        <mxCell id="qRS98BWadA9C0YuERfwC-76" value="&lt;font color=&quot;#ea6b66&quot;&gt;random&lt;/font&gt;" style="text;html=1;strokeColor=none;fillColor=none;align=center;verticalAlign=middle;whiteSpace=wrap;rounded=0;shadow=0;sketch=0;fontFamily=Comic Sans MS;" parent="1" vertex="1">
          <mxGeometry x="240" y="470" width="70" height="20" as="geometry" />
        </mxCell>
        <mxCell id="qRS98BWadA9C0YuERfwC-77" value="&lt;font color=&quot;#ea6b66&quot;&gt;7&lt;/font&gt;" style="text;html=1;strokeColor=none;fillColor=none;align=center;verticalAlign=middle;whiteSpace=wrap;rounded=0;shadow=0;sketch=0;fontFamily=Comic Sans MS;" parent="1" vertex="1">
          <mxGeometry x="210" y="450" width="30" height="40" as="geometry" />
        </mxCell>
        <mxCell id="qRS98BWadA9C0YuERfwC-78" value="" style="shape=cube;whiteSpace=wrap;html=1;boundedLbl=1;backgroundOutline=1;darkOpacity=0.05;darkOpacity2=0.1;shadow=0;sketch=0;strokeWidth=1;size=10;fillColor=#f8cecc;strokeColor=#b85450;" parent="1" vertex="1">
          <mxGeometry x="520" y="440" width="120" height="50" as="geometry" />
        </mxCell>
        <mxCell id="qRS98BWadA9C0YuERfwC-79" value="" style="endArrow=none;html=1;rounded=0;sketch=0;strokeWidth=1;exitX=0.246;exitY=0;exitDx=0;exitDy=0;exitPerimeter=0;fillColor=#f8cecc;strokeColor=#b85450;" parent="1" source="qRS98BWadA9C0YuERfwC-78" edge="1">
          <mxGeometry width="50" height="50" relative="1" as="geometry">
            <mxPoint x="569" y="440" as="sourcePoint" />
            <mxPoint x="560" y="450" as="targetPoint" />
          </mxGeometry>
        </mxCell>
        <mxCell id="qRS98BWadA9C0YuERfwC-80" value="" style="endArrow=none;html=1;rounded=0;sketch=0;strokeWidth=1;fillColor=#f8cecc;strokeColor=#b85450;" parent="1" edge="1">
          <mxGeometry width="50" height="50" relative="1" as="geometry">
            <mxPoint x="560" y="490" as="sourcePoint" />
            <mxPoint x="560" y="450" as="targetPoint" />
          </mxGeometry>
        </mxCell>
        <mxCell id="qRS98BWadA9C0YuERfwC-81" value="" style="endArrow=none;html=1;rounded=0;sketch=0;strokeWidth=1;entryX=0;entryY=0;entryDx=120;entryDy=30;entryPerimeter=0;fillColor=#f8cecc;strokeColor=#b85450;" parent="1" target="qRS98BWadA9C0YuERfwC-78" edge="1">
          <mxGeometry width="50" height="50" relative="1" as="geometry">
            <mxPoint x="560" y="470" as="sourcePoint" />
            <mxPoint x="690" y="410" as="targetPoint" />
          </mxGeometry>
        </mxCell>
        <mxCell id="qRS98BWadA9C0YuERfwC-82" style="edgeStyle=orthogonalEdgeStyle;rounded=1;sketch=0;jumpStyle=line;orthogonalLoop=1;jettySize=auto;html=1;exitX=1;exitY=0.5;exitDx=0;exitDy=0;entryX=0;entryY=0;entryDx=0;entryDy=20;entryPerimeter=0;shadow=0;fontFamily=Comic Sans MS;fontColor=#EA6B66;startArrow=oval;startFill=1;startSize=6;endSize=6;targetPerimeterSpacing=0;strokeColor=#000A20;strokeWidth=1;" parent="1" target="qRS98BWadA9C0YuERfwC-87" edge="1">
          <mxGeometry relative="1" as="geometry">
            <mxPoint x="840" y="460" as="sourcePoint" />
          </mxGeometry>
        </mxCell>
        <mxCell id="qRS98BWadA9C0YuERfwC-133" style="edgeStyle=orthogonalEdgeStyle;rounded=1;sketch=0;jumpStyle=none;orthogonalLoop=1;jettySize=auto;html=1;exitX=1;exitY=0.5;exitDx=0;exitDy=0;entryX=0;entryY=0;entryDx=0;entryDy=20;entryPerimeter=0;shadow=0;fontFamily=Comic Sans MS;fontColor=#EA6B66;startArrow=oval;startFill=1;endArrow=classic;endFill=1;startSize=6;endSize=6;targetPerimeterSpacing=0;strokeColor=#000A20;strokeWidth=1;" parent="1" source="qRS98BWadA9C0YuERfwC-83" target="qRS98BWadA9C0YuERfwC-126" edge="1">
          <mxGeometry relative="1" as="geometry" />
        </mxCell>
        <mxCell id="qRS98BWadA9C0YuERfwC-83" value="&lt;font face=&quot;Comic Sans MS&quot; color=&quot;#ea6b66&quot;&gt;next&lt;/font&gt;" style="text;html=1;strokeColor=none;fillColor=none;align=center;verticalAlign=middle;whiteSpace=wrap;rounded=0;shadow=0;sketch=0;" parent="1" vertex="1">
          <mxGeometry x="560" y="450" width="70" height="20" as="geometry" />
        </mxCell>
        <mxCell id="qRS98BWadA9C0YuERfwC-125" style="edgeStyle=orthogonalEdgeStyle;rounded=1;sketch=0;jumpStyle=none;orthogonalLoop=1;jettySize=auto;html=1;exitX=1;exitY=0.5;exitDx=0;exitDy=0;shadow=0;fontFamily=Comic Sans MS;fontColor=#EA6B66;startArrow=oval;startFill=1;endArrow=classic;endFill=1;startSize=6;endSize=6;targetPerimeterSpacing=0;strokeColor=#b85450;strokeWidth=1;entryX=0.5;entryY=1;entryDx=0;entryDy=0;fillColor=#f8cecc;" parent="1" source="qRS98BWadA9C0YuERfwC-85" target="qRS98BWadA9C0YuERfwC-77" edge="1">
          <mxGeometry relative="1" as="geometry">
            <mxPoint x="630" y="540" as="targetPoint" />
            <Array as="points">
              <mxPoint x="630" y="550" />
              <mxPoint x="225" y="550" />
            </Array>
          </mxGeometry>
        </mxCell>
        <mxCell id="qRS98BWadA9C0YuERfwC-85" value="&lt;font color=&quot;#ea6b66&quot;&gt;random&lt;/font&gt;" style="text;html=1;strokeColor=none;fillColor=none;align=center;verticalAlign=middle;whiteSpace=wrap;rounded=0;shadow=0;sketch=0;fontFamily=Comic Sans MS;" parent="1" vertex="1">
          <mxGeometry x="560" y="470" width="70" height="20" as="geometry" />
        </mxCell>
        <mxCell id="qRS98BWadA9C0YuERfwC-86" value="&lt;font color=&quot;#ea6b66&quot;&gt;13&lt;/font&gt;" style="text;html=1;strokeColor=none;fillColor=none;align=center;verticalAlign=middle;whiteSpace=wrap;rounded=0;shadow=0;sketch=0;fontFamily=Comic Sans MS;" parent="1" vertex="1">
          <mxGeometry x="530" y="450" width="30" height="40" as="geometry" />
        </mxCell>
        <mxCell id="qRS98BWadA9C0YuERfwC-87" value="" style="shape=cube;whiteSpace=wrap;html=1;boundedLbl=1;backgroundOutline=1;darkOpacity=0.05;darkOpacity2=0.1;shadow=0;sketch=0;strokeWidth=1;size=10;fillColor=#f8cecc;strokeColor=#b85450;" parent="1" vertex="1">
          <mxGeometry x="840" y="440" width="120" height="50" as="geometry" />
        </mxCell>
        <mxCell id="qRS98BWadA9C0YuERfwC-88" value="" style="endArrow=none;html=1;rounded=0;sketch=0;strokeWidth=1;exitX=0.246;exitY=0;exitDx=0;exitDy=0;exitPerimeter=0;fillColor=#f8cecc;strokeColor=#b85450;" parent="1" source="qRS98BWadA9C0YuERfwC-87" edge="1">
          <mxGeometry width="50" height="50" relative="1" as="geometry">
            <mxPoint x="889" y="440" as="sourcePoint" />
            <mxPoint x="879.9999999999998" y="450" as="targetPoint" />
          </mxGeometry>
        </mxCell>
        <mxCell id="qRS98BWadA9C0YuERfwC-89" value="" style="endArrow=none;html=1;rounded=0;sketch=0;strokeWidth=1;fillColor=#f8cecc;strokeColor=#b85450;" parent="1" edge="1">
          <mxGeometry width="50" height="50" relative="1" as="geometry">
            <mxPoint x="879.9999999999998" y="490" as="sourcePoint" />
            <mxPoint x="879.9999999999998" y="450" as="targetPoint" />
          </mxGeometry>
        </mxCell>
        <mxCell id="qRS98BWadA9C0YuERfwC-90" value="" style="endArrow=none;html=1;rounded=0;sketch=0;strokeWidth=1;entryX=0;entryY=0;entryDx=120;entryDy=30;entryPerimeter=0;fillColor=#f8cecc;strokeColor=#b85450;" parent="1" target="qRS98BWadA9C0YuERfwC-87" edge="1">
          <mxGeometry width="50" height="50" relative="1" as="geometry">
            <mxPoint x="879.9999999999998" y="470" as="sourcePoint" />
            <mxPoint x="1010" y="410" as="targetPoint" />
          </mxGeometry>
        </mxCell>
        <mxCell id="qRS98BWadA9C0YuERfwC-91" style="edgeStyle=orthogonalEdgeStyle;rounded=1;sketch=0;jumpStyle=line;orthogonalLoop=1;jettySize=auto;html=1;exitX=1;exitY=0.5;exitDx=0;exitDy=0;entryX=0;entryY=0;entryDx=0;entryDy=20;entryPerimeter=0;shadow=0;fontFamily=Comic Sans MS;fontColor=#EA6B66;startArrow=oval;startFill=1;startSize=6;endSize=6;targetPerimeterSpacing=0;strokeColor=#000A20;strokeWidth=1;" parent="1" source="qRS98BWadA9C0YuERfwC-92" edge="1">
          <mxGeometry relative="1" as="geometry">
            <mxPoint x="1000" y="460" as="targetPoint" />
          </mxGeometry>
        </mxCell>
        <mxCell id="qRS98BWadA9C0YuERfwC-92" value="&lt;font face=&quot;Comic Sans MS&quot; color=&quot;#ea6b66&quot;&gt;next&lt;/font&gt;" style="text;html=1;strokeColor=none;fillColor=none;align=center;verticalAlign=middle;whiteSpace=wrap;rounded=0;shadow=0;sketch=0;" parent="1" vertex="1">
          <mxGeometry x="880" y="450" width="70" height="20" as="geometry" />
        </mxCell>
        <mxCell id="qRS98BWadA9C0YuERfwC-136" style="edgeStyle=orthogonalEdgeStyle;rounded=1;sketch=0;jumpStyle=none;orthogonalLoop=1;jettySize=auto;html=1;exitX=1;exitY=0.5;exitDx=0;exitDy=0;shadow=0;fontFamily=Comic Sans MS;fontColor=#EA6B66;startArrow=oval;startFill=1;endArrow=classic;endFill=1;startSize=6;endSize=6;targetPerimeterSpacing=0;strokeColor=#b85450;strokeWidth=1;entryX=0.5;entryY=1;entryDx=0;entryDy=0;fillColor=#f8cecc;" parent="1" source="qRS98BWadA9C0YuERfwC-94" target="qRS98BWadA9C0YuERfwC-86" edge="1">
          <mxGeometry relative="1" as="geometry">
            <mxPoint x="930" y="580" as="targetPoint" />
            <Array as="points">
              <mxPoint x="950" y="510" />
              <mxPoint x="545" y="510" />
            </Array>
          </mxGeometry>
        </mxCell>
        <mxCell id="qRS98BWadA9C0YuERfwC-94" value="&lt;font color=&quot;#ea6b66&quot;&gt;random&lt;/font&gt;" style="text;html=1;strokeColor=none;fillColor=none;align=center;verticalAlign=middle;whiteSpace=wrap;rounded=0;shadow=0;sketch=0;fontFamily=Comic Sans MS;" parent="1" vertex="1">
          <mxGeometry x="880" y="470" width="70" height="20" as="geometry" />
        </mxCell>
        <mxCell id="qRS98BWadA9C0YuERfwC-95" value="&lt;font color=&quot;#ea6b66&quot;&gt;11&lt;/font&gt;" style="text;html=1;strokeColor=none;fillColor=none;align=center;verticalAlign=middle;whiteSpace=wrap;rounded=0;shadow=0;sketch=0;fontFamily=Comic Sans MS;" parent="1" vertex="1">
          <mxGeometry x="850" y="450" width="30" height="40" as="geometry" />
        </mxCell>
        <mxCell id="qRS98BWadA9C0YuERfwC-109" style="edgeStyle=orthogonalEdgeStyle;rounded=1;sketch=0;jumpStyle=line;orthogonalLoop=1;jettySize=auto;html=1;exitX=1;exitY=0.5;exitDx=0;exitDy=0;entryX=0;entryY=0;entryDx=0;entryDy=20;entryPerimeter=0;shadow=0;fontFamily=Comic Sans MS;fontColor=#EA6B66;startArrow=oval;startFill=1;startSize=6;endSize=6;targetPerimeterSpacing=0;strokeColor=#000A20;strokeWidth=1;" parent="1" target="qRS98BWadA9C0YuERfwC-114" edge="1">
          <mxGeometry relative="1" as="geometry">
            <mxPoint x="1109.9999999999995" y="460" as="sourcePoint" />
          </mxGeometry>
        </mxCell>
        <mxCell id="qRS98BWadA9C0YuERfwC-114" value="null" style="shape=cube;whiteSpace=wrap;html=1;boundedLbl=1;backgroundOutline=1;darkOpacity=0.05;darkOpacity2=0.1;shadow=0;sketch=0;fontFamily=Comic Sans MS;fontColor=#333333;strokeColor=#666666;strokeWidth=1;size=10;fillColor=#f5f5f5;" parent="1" vertex="1">
          <mxGeometry x="1160" y="440" width="50" height="50" as="geometry" />
        </mxCell>
        <mxCell id="qRS98BWadA9C0YuERfwC-115" value="" style="shape=cube;whiteSpace=wrap;html=1;boundedLbl=1;backgroundOutline=1;darkOpacity=0.05;darkOpacity2=0.1;shadow=0;sketch=0;strokeWidth=1;size=10;fillColor=#ffe6cc;strokeColor=#d79b00;" parent="1" vertex="1">
          <mxGeometry x="360" y="440" width="120" height="50" as="geometry" />
        </mxCell>
        <mxCell id="qRS98BWadA9C0YuERfwC-116" value="" style="endArrow=none;html=1;rounded=0;sketch=0;strokeWidth=1;exitX=0.246;exitY=0;exitDx=0;exitDy=0;exitPerimeter=0;fillColor=#ffe6cc;strokeColor=#d79b00;" parent="1" source="qRS98BWadA9C0YuERfwC-115" edge="1">
          <mxGeometry width="50" height="50" relative="1" as="geometry">
            <mxPoint x="409" y="440" as="sourcePoint" />
            <mxPoint x="400" y="450" as="targetPoint" />
          </mxGeometry>
        </mxCell>
        <mxCell id="qRS98BWadA9C0YuERfwC-117" value="" style="endArrow=none;html=1;rounded=0;sketch=0;strokeWidth=1;fillColor=#ffe6cc;strokeColor=#d79b00;" parent="1" edge="1">
          <mxGeometry width="50" height="50" relative="1" as="geometry">
            <mxPoint x="400" y="490" as="sourcePoint" />
            <mxPoint x="400" y="450" as="targetPoint" />
          </mxGeometry>
        </mxCell>
        <mxCell id="qRS98BWadA9C0YuERfwC-118" value="" style="endArrow=none;html=1;rounded=0;sketch=0;strokeWidth=1;entryX=0;entryY=0;entryDx=120;entryDy=30;entryPerimeter=0;fillColor=#ffe6cc;strokeColor=#d79b00;" parent="1" target="qRS98BWadA9C0YuERfwC-115" edge="1">
          <mxGeometry width="50" height="50" relative="1" as="geometry">
            <mxPoint x="400" y="470" as="sourcePoint" />
            <mxPoint x="530" y="410" as="targetPoint" />
          </mxGeometry>
        </mxCell>
        <mxCell id="qRS98BWadA9C0YuERfwC-122" style="edgeStyle=orthogonalEdgeStyle;rounded=1;sketch=0;jumpStyle=none;orthogonalLoop=1;jettySize=auto;html=1;exitX=1;exitY=0.5;exitDx=0;exitDy=0;shadow=0;fontFamily=Comic Sans MS;fontColor=#EA6B66;startArrow=oval;startFill=1;startSize=6;endSize=6;targetPerimeterSpacing=0;strokeColor=#000A20;strokeWidth=1;entryX=0;entryY=0;entryDx=0;entryDy=20;entryPerimeter=0;" parent="1" source="qRS98BWadA9C0YuERfwC-119" target="qRS98BWadA9C0YuERfwC-78" edge="1">
          <mxGeometry relative="1" as="geometry">
            <mxPoint x="500" y="460" as="targetPoint" />
          </mxGeometry>
        </mxCell>
        <mxCell id="qRS98BWadA9C0YuERfwC-119" value="&lt;font face=&quot;Comic Sans MS&quot; color=&quot;#ea6b66&quot;&gt;next&lt;/font&gt;" style="text;html=1;strokeColor=none;fillColor=none;align=center;verticalAlign=middle;whiteSpace=wrap;rounded=0;shadow=0;sketch=0;" parent="1" vertex="1">
          <mxGeometry x="400" y="450" width="70" height="20" as="geometry" />
        </mxCell>
        <mxCell id="qRS98BWadA9C0YuERfwC-124" style="rounded=1;sketch=0;jumpStyle=none;orthogonalLoop=1;jettySize=auto;html=1;exitX=1;exitY=0.5;exitDx=0;exitDy=0;shadow=0;fontFamily=Comic Sans MS;fontColor=#EA6B66;startArrow=oval;startFill=1;startSize=6;endSize=6;targetPerimeterSpacing=0;strokeColor=#b85450;strokeWidth=1;endArrow=none;endFill=0;fillColor=#f8cecc;" parent="1" source="qRS98BWadA9C0YuERfwC-120" edge="1">
          <mxGeometry relative="1" as="geometry">
            <mxPoint x="470" y="530" as="targetPoint" />
          </mxGeometry>
        </mxCell>
        <mxCell id="qRS98BWadA9C0YuERfwC-120" value="&lt;font color=&quot;#ea6b66&quot;&gt;random&lt;/font&gt;" style="text;html=1;strokeColor=none;fillColor=none;align=center;verticalAlign=middle;whiteSpace=wrap;rounded=0;shadow=0;sketch=0;fontFamily=Comic Sans MS;" parent="1" vertex="1">
          <mxGeometry x="400" y="470" width="70" height="20" as="geometry" />
        </mxCell>
        <mxCell id="qRS98BWadA9C0YuERfwC-121" value="&lt;font color=&quot;#ea6b66&quot;&gt;7&lt;/font&gt;" style="text;html=1;strokeColor=none;fillColor=none;align=center;verticalAlign=middle;whiteSpace=wrap;rounded=0;shadow=0;sketch=0;fontFamily=Comic Sans MS;" parent="1" vertex="1">
          <mxGeometry x="370" y="450" width="30" height="40" as="geometry" />
        </mxCell>
        <mxCell id="qRS98BWadA9C0YuERfwC-126" value="" style="shape=cube;whiteSpace=wrap;html=1;boundedLbl=1;backgroundOutline=1;darkOpacity=0.05;darkOpacity2=0.1;shadow=0;sketch=0;strokeWidth=1;size=10;fillColor=#ffe6cc;strokeColor=#d79b00;" parent="1" vertex="1">
          <mxGeometry x="680" y="440" width="120" height="50" as="geometry" />
        </mxCell>
        <mxCell id="qRS98BWadA9C0YuERfwC-127" value="" style="endArrow=none;html=1;rounded=0;sketch=0;strokeWidth=1;exitX=0.246;exitY=0;exitDx=0;exitDy=0;exitPerimeter=0;fillColor=#ffe6cc;strokeColor=#d79b00;" parent="1" source="qRS98BWadA9C0YuERfwC-126" edge="1">
          <mxGeometry width="50" height="50" relative="1" as="geometry">
            <mxPoint x="729" y="440" as="sourcePoint" />
            <mxPoint x="720" y="450" as="targetPoint" />
          </mxGeometry>
        </mxCell>
        <mxCell id="qRS98BWadA9C0YuERfwC-128" value="" style="endArrow=none;html=1;rounded=0;sketch=0;strokeWidth=1;fillColor=#ffe6cc;strokeColor=#d79b00;" parent="1" edge="1">
          <mxGeometry width="50" height="50" relative="1" as="geometry">
            <mxPoint x="720" y="490" as="sourcePoint" />
            <mxPoint x="720" y="450" as="targetPoint" />
          </mxGeometry>
        </mxCell>
        <mxCell id="qRS98BWadA9C0YuERfwC-129" value="" style="endArrow=none;html=1;rounded=0;sketch=0;strokeWidth=1;entryX=0;entryY=0;entryDx=120;entryDy=30;entryPerimeter=0;fillColor=#ffe6cc;strokeColor=#d79b00;" parent="1" target="qRS98BWadA9C0YuERfwC-126" edge="1">
          <mxGeometry width="50" height="50" relative="1" as="geometry">
            <mxPoint x="720" y="470" as="sourcePoint" />
            <mxPoint x="850" y="410" as="targetPoint" />
          </mxGeometry>
        </mxCell>
        <mxCell id="qRS98BWadA9C0YuERfwC-135" style="edgeStyle=orthogonalEdgeStyle;rounded=1;sketch=0;jumpStyle=none;orthogonalLoop=1;jettySize=auto;html=1;exitX=1;exitY=0.5;exitDx=0;exitDy=0;entryX=0;entryY=0;entryDx=0;entryDy=20;entryPerimeter=0;shadow=0;fontFamily=Comic Sans MS;fontColor=#EA6B66;startArrow=oval;startFill=1;endArrow=classic;endFill=1;startSize=6;endSize=6;targetPerimeterSpacing=0;strokeColor=#000A20;strokeWidth=1;" parent="1" source="qRS98BWadA9C0YuERfwC-130" target="qRS98BWadA9C0YuERfwC-87" edge="1">
          <mxGeometry relative="1" as="geometry" />
        </mxCell>
        <mxCell id="qRS98BWadA9C0YuERfwC-130" value="&lt;font face=&quot;Comic Sans MS&quot; color=&quot;#ea6b66&quot;&gt;next&lt;/font&gt;" style="text;html=1;strokeColor=none;fillColor=none;align=center;verticalAlign=middle;whiteSpace=wrap;rounded=0;shadow=0;sketch=0;" parent="1" vertex="1">
          <mxGeometry x="720" y="450" width="70" height="20" as="geometry" />
        </mxCell>
        <mxCell id="qRS98BWadA9C0YuERfwC-134" style="edgeStyle=orthogonalEdgeStyle;rounded=1;sketch=0;jumpStyle=none;orthogonalLoop=1;jettySize=auto;html=1;exitX=1;exitY=0.5;exitDx=0;exitDy=0;shadow=0;fontFamily=Comic Sans MS;fontColor=#EA6B66;startArrow=oval;startFill=1;endArrow=none;endFill=0;startSize=6;endSize=6;targetPerimeterSpacing=0;strokeWidth=1;fillColor=#f8cecc;strokeColor=#b85450;" parent="1" source="qRS98BWadA9C0YuERfwC-131" edge="1">
          <mxGeometry relative="1" as="geometry">
            <mxPoint x="620" y="550" as="targetPoint" />
            <Array as="points">
              <mxPoint x="790" y="550" />
              <mxPoint x="620" y="550" />
            </Array>
          </mxGeometry>
        </mxCell>
        <mxCell id="qRS98BWadA9C0YuERfwC-131" value="&lt;font color=&quot;#ea6b66&quot;&gt;random&lt;/font&gt;" style="text;html=1;strokeColor=none;fillColor=none;align=center;verticalAlign=middle;whiteSpace=wrap;rounded=0;shadow=0;sketch=0;fontFamily=Comic Sans MS;" parent="1" vertex="1">
          <mxGeometry x="720" y="470" width="70" height="20" as="geometry" />
        </mxCell>
        <mxCell id="qRS98BWadA9C0YuERfwC-132" value="&lt;font color=&quot;#ea6b66&quot;&gt;13&lt;/font&gt;" style="text;html=1;strokeColor=none;fillColor=none;align=center;verticalAlign=middle;whiteSpace=wrap;rounded=0;shadow=0;sketch=0;fontFamily=Comic Sans MS;" parent="1" vertex="1">
          <mxGeometry x="690" y="450" width="30" height="40" as="geometry" />
        </mxCell>
        <mxCell id="qRS98BWadA9C0YuERfwC-137" value="" style="shape=cube;whiteSpace=wrap;html=1;boundedLbl=1;backgroundOutline=1;darkOpacity=0.05;darkOpacity2=0.1;shadow=0;sketch=0;strokeWidth=1;size=10;fillColor=#ffe6cc;strokeColor=#d79b00;" parent="1" vertex="1">
          <mxGeometry x="1000" y="440" width="120" height="50" as="geometry" />
        </mxCell>
        <mxCell id="qRS98BWadA9C0YuERfwC-138" value="" style="endArrow=none;html=1;rounded=0;sketch=0;strokeWidth=1;exitX=0.246;exitY=0;exitDx=0;exitDy=0;exitPerimeter=0;fillColor=#ffe6cc;strokeColor=#d79b00;" parent="1" source="qRS98BWadA9C0YuERfwC-137" edge="1">
          <mxGeometry width="50" height="50" relative="1" as="geometry">
            <mxPoint x="1049" y="440" as="sourcePoint" />
            <mxPoint x="1040" y="450" as="targetPoint" />
          </mxGeometry>
        </mxCell>
        <mxCell id="qRS98BWadA9C0YuERfwC-139" value="" style="endArrow=none;html=1;rounded=0;sketch=0;strokeWidth=1;fillColor=#ffe6cc;strokeColor=#d79b00;" parent="1" edge="1">
          <mxGeometry width="50" height="50" relative="1" as="geometry">
            <mxPoint x="1040" y="490" as="sourcePoint" />
            <mxPoint x="1040" y="450" as="targetPoint" />
          </mxGeometry>
        </mxCell>
        <mxCell id="qRS98BWadA9C0YuERfwC-140" value="" style="endArrow=none;html=1;rounded=0;sketch=0;strokeWidth=1;entryX=0;entryY=0;entryDx=120;entryDy=30;entryPerimeter=0;fillColor=#ffe6cc;strokeColor=#d79b00;" parent="1" target="qRS98BWadA9C0YuERfwC-137" edge="1">
          <mxGeometry width="50" height="50" relative="1" as="geometry">
            <mxPoint x="1040" y="470" as="sourcePoint" />
            <mxPoint x="1170" y="410" as="targetPoint" />
          </mxGeometry>
        </mxCell>
        <mxCell id="qRS98BWadA9C0YuERfwC-141" value="&lt;font face=&quot;Comic Sans MS&quot; color=&quot;#ea6b66&quot;&gt;next&lt;/font&gt;" style="text;html=1;strokeColor=none;fillColor=none;align=center;verticalAlign=middle;whiteSpace=wrap;rounded=0;shadow=0;sketch=0;" parent="1" vertex="1">
          <mxGeometry x="1040" y="450" width="70" height="20" as="geometry" />
        </mxCell>
        <mxCell id="qRS98BWadA9C0YuERfwC-144" style="edgeStyle=orthogonalEdgeStyle;rounded=1;sketch=0;jumpStyle=none;orthogonalLoop=1;jettySize=auto;html=1;exitX=1;exitY=0.5;exitDx=0;exitDy=0;shadow=0;fontFamily=Comic Sans MS;fontColor=#EA6B66;startArrow=oval;startFill=1;endArrow=none;endFill=0;startSize=6;endSize=6;targetPerimeterSpacing=0;strokeColor=#b85450;strokeWidth=1;fillColor=#f8cecc;" parent="1" source="qRS98BWadA9C0YuERfwC-142" edge="1">
          <mxGeometry relative="1" as="geometry">
            <mxPoint x="940" y="510" as="targetPoint" />
            <Array as="points">
              <mxPoint x="1110" y="510" />
            </Array>
          </mxGeometry>
        </mxCell>
        <mxCell id="qRS98BWadA9C0YuERfwC-142" value="&lt;font color=&quot;#ea6b66&quot;&gt;random&lt;/font&gt;" style="text;html=1;strokeColor=none;fillColor=none;align=center;verticalAlign=middle;whiteSpace=wrap;rounded=0;shadow=0;sketch=0;fontFamily=Comic Sans MS;" parent="1" vertex="1">
          <mxGeometry x="1040" y="470" width="70" height="20" as="geometry" />
        </mxCell>
        <mxCell id="qRS98BWadA9C0YuERfwC-143" value="&lt;font color=&quot;#ea6b66&quot;&gt;11&lt;/font&gt;" style="text;html=1;strokeColor=none;fillColor=none;align=center;verticalAlign=middle;whiteSpace=wrap;rounded=0;shadow=0;sketch=0;fontFamily=Comic Sans MS;" parent="1" vertex="1">
          <mxGeometry x="1010" y="450" width="30" height="40" as="geometry" />
        </mxCell>
        <mxCell id="qRS98BWadA9C0YuERfwC-145" value="" style="shape=cube;whiteSpace=wrap;html=1;boundedLbl=1;backgroundOutline=1;darkOpacity=0.05;darkOpacity2=0.1;shadow=0;sketch=0;strokeWidth=1;size=10;fillColor=#f8cecc;strokeColor=#b85450;" parent="1" vertex="1">
          <mxGeometry x="200" y="640" width="120" height="50" as="geometry" />
        </mxCell>
        <mxCell id="qRS98BWadA9C0YuERfwC-146" value="" style="endArrow=none;html=1;rounded=0;sketch=0;strokeWidth=1;exitX=0.246;exitY=0;exitDx=0;exitDy=0;exitPerimeter=0;fillColor=#f8cecc;strokeColor=#b85450;" parent="1" source="qRS98BWadA9C0YuERfwC-145" edge="1">
          <mxGeometry width="50" height="50" relative="1" as="geometry">
            <mxPoint x="249" y="640" as="sourcePoint" />
            <mxPoint x="240" y="650" as="targetPoint" />
          </mxGeometry>
        </mxCell>
        <mxCell id="qRS98BWadA9C0YuERfwC-147" value="" style="endArrow=none;html=1;rounded=0;sketch=0;strokeWidth=1;fillColor=#f8cecc;strokeColor=#b85450;" parent="1" edge="1">
          <mxGeometry width="50" height="50" relative="1" as="geometry">
            <mxPoint x="240" y="690" as="sourcePoint" />
            <mxPoint x="240" y="650" as="targetPoint" />
          </mxGeometry>
        </mxCell>
        <mxCell id="qRS98BWadA9C0YuERfwC-148" value="" style="endArrow=none;html=1;rounded=0;sketch=0;strokeWidth=1;entryX=0;entryY=0;entryDx=120;entryDy=30;entryPerimeter=0;fillColor=#f8cecc;strokeColor=#b85450;" parent="1" target="qRS98BWadA9C0YuERfwC-145" edge="1">
          <mxGeometry width="50" height="50" relative="1" as="geometry">
            <mxPoint x="240" y="670" as="sourcePoint" />
            <mxPoint x="370" y="610" as="targetPoint" />
          </mxGeometry>
        </mxCell>
        <mxCell id="qRS98BWadA9C0YuERfwC-149" style="edgeStyle=orthogonalEdgeStyle;rounded=1;sketch=0;jumpStyle=line;orthogonalLoop=1;jettySize=auto;html=1;exitX=1;exitY=0.5;exitDx=0;exitDy=0;entryX=0;entryY=0;entryDx=0;entryDy=20;entryPerimeter=0;fontFamily=Comic Sans MS;startArrow=oval;startFill=1;strokeColor=#000A20;strokeWidth=1;shadow=0;targetPerimeterSpacing=0;endSize=6;startSize=6;" parent="1" source="qRS98BWadA9C0YuERfwC-150" target="qRS98BWadA9C0YuERfwC-175" edge="1">
          <mxGeometry relative="1" as="geometry" />
        </mxCell>
        <mxCell id="qRS98BWadA9C0YuERfwC-150" value="&lt;font face=&quot;Comic Sans MS&quot; color=&quot;#ea6b66&quot;&gt;next&lt;/font&gt;" style="text;html=1;strokeColor=none;fillColor=none;align=center;verticalAlign=middle;whiteSpace=wrap;rounded=0;shadow=0;sketch=0;" parent="1" vertex="1">
          <mxGeometry x="240" y="650" width="70" height="20" as="geometry" />
        </mxCell>
        <mxCell id="qRS98BWadA9C0YuERfwC-151" style="edgeStyle=orthogonalEdgeStyle;rounded=1;sketch=0;jumpStyle=none;orthogonalLoop=1;jettySize=auto;html=1;exitX=1;exitY=0.5;exitDx=0;exitDy=0;shadow=0;fontFamily=Comic Sans MS;fontColor=#EA6B66;startArrow=oval;startFill=1;startSize=6;endSize=6;targetPerimeterSpacing=0;strokeColor=#b85450;strokeWidth=1;entryX=0;entryY=0;entryDx=30;entryDy=50;entryPerimeter=0;fillColor=#f8cecc;" parent="1" source="qRS98BWadA9C0YuERfwC-152" target="qRS98BWadA9C0YuERfwC-174" edge="1">
          <mxGeometry relative="1" as="geometry">
            <mxPoint x="1202.7586206896551" y="720" as="targetPoint" />
            <Array as="points">
              <mxPoint x="310" y="730" />
              <mxPoint x="1190" y="730" />
            </Array>
          </mxGeometry>
        </mxCell>
        <mxCell id="qRS98BWadA9C0YuERfwC-152" value="&lt;font color=&quot;#ea6b66&quot;&gt;random&lt;/font&gt;" style="text;html=1;strokeColor=none;fillColor=none;align=center;verticalAlign=middle;whiteSpace=wrap;rounded=0;shadow=0;sketch=0;fontFamily=Comic Sans MS;" parent="1" vertex="1">
          <mxGeometry x="240" y="670" width="70" height="20" as="geometry" />
        </mxCell>
        <mxCell id="qRS98BWadA9C0YuERfwC-153" value="&lt;font color=&quot;#ea6b66&quot;&gt;7&lt;/font&gt;" style="text;html=1;strokeColor=none;fillColor=none;align=center;verticalAlign=middle;whiteSpace=wrap;rounded=0;shadow=0;sketch=0;fontFamily=Comic Sans MS;" parent="1" vertex="1">
          <mxGeometry x="210" y="650" width="30" height="40" as="geometry" />
        </mxCell>
        <mxCell id="qRS98BWadA9C0YuERfwC-154" value="" style="shape=cube;whiteSpace=wrap;html=1;boundedLbl=1;backgroundOutline=1;darkOpacity=0.05;darkOpacity2=0.1;shadow=0;sketch=0;strokeWidth=1;size=10;fillColor=#f8cecc;strokeColor=#b85450;" parent="1" vertex="1">
          <mxGeometry x="520" y="640" width="120" height="50" as="geometry" />
        </mxCell>
        <mxCell id="qRS98BWadA9C0YuERfwC-155" value="" style="endArrow=none;html=1;rounded=0;sketch=0;strokeWidth=1;exitX=0.246;exitY=0;exitDx=0;exitDy=0;exitPerimeter=0;fillColor=#f8cecc;strokeColor=#b85450;" parent="1" source="qRS98BWadA9C0YuERfwC-154" edge="1">
          <mxGeometry width="50" height="50" relative="1" as="geometry">
            <mxPoint x="569" y="640" as="sourcePoint" />
            <mxPoint x="560" y="650" as="targetPoint" />
          </mxGeometry>
        </mxCell>
        <mxCell id="qRS98BWadA9C0YuERfwC-156" value="" style="endArrow=none;html=1;rounded=0;sketch=0;strokeWidth=1;fillColor=#f8cecc;strokeColor=#b85450;" parent="1" edge="1">
          <mxGeometry width="50" height="50" relative="1" as="geometry">
            <mxPoint x="560" y="690" as="sourcePoint" />
            <mxPoint x="560" y="650" as="targetPoint" />
          </mxGeometry>
        </mxCell>
        <mxCell id="qRS98BWadA9C0YuERfwC-157" value="" style="endArrow=none;html=1;rounded=0;sketch=0;strokeWidth=1;entryX=0;entryY=0;entryDx=120;entryDy=30;entryPerimeter=0;fillColor=#f8cecc;strokeColor=#b85450;" parent="1" target="qRS98BWadA9C0YuERfwC-154" edge="1">
          <mxGeometry width="50" height="50" relative="1" as="geometry">
            <mxPoint x="560" y="670" as="sourcePoint" />
            <mxPoint x="690" y="610" as="targetPoint" />
          </mxGeometry>
        </mxCell>
        <mxCell id="qRS98BWadA9C0YuERfwC-158" style="edgeStyle=orthogonalEdgeStyle;rounded=1;sketch=0;jumpStyle=line;orthogonalLoop=1;jettySize=auto;html=1;exitX=1;exitY=0.5;exitDx=0;exitDy=0;entryX=0;entryY=0;entryDx=0;entryDy=20;entryPerimeter=0;shadow=0;fontFamily=Comic Sans MS;fontColor=#EA6B66;startArrow=oval;startFill=1;startSize=6;endSize=6;targetPerimeterSpacing=0;strokeColor=#000A20;strokeWidth=1;" parent="1" target="qRS98BWadA9C0YuERfwC-164" edge="1">
          <mxGeometry relative="1" as="geometry">
            <mxPoint x="840" y="660" as="sourcePoint" />
          </mxGeometry>
        </mxCell>
        <mxCell id="qRS98BWadA9C0YuERfwC-159" style="edgeStyle=orthogonalEdgeStyle;rounded=1;sketch=0;jumpStyle=none;orthogonalLoop=1;jettySize=auto;html=1;exitX=1;exitY=0.5;exitDx=0;exitDy=0;entryX=0;entryY=0;entryDx=0;entryDy=20;entryPerimeter=0;shadow=0;fontFamily=Comic Sans MS;fontColor=#EA6B66;startArrow=oval;startFill=1;endArrow=classic;endFill=1;startSize=6;endSize=6;targetPerimeterSpacing=0;strokeColor=#000A20;strokeWidth=1;" parent="1" source="qRS98BWadA9C0YuERfwC-160" target="qRS98BWadA9C0YuERfwC-184" edge="1">
          <mxGeometry relative="1" as="geometry" />
        </mxCell>
        <mxCell id="qRS98BWadA9C0YuERfwC-160" value="&lt;font face=&quot;Comic Sans MS&quot; color=&quot;#ea6b66&quot;&gt;next&lt;/font&gt;" style="text;html=1;strokeColor=none;fillColor=none;align=center;verticalAlign=middle;whiteSpace=wrap;rounded=0;shadow=0;sketch=0;" parent="1" vertex="1">
          <mxGeometry x="560" y="650" width="70" height="20" as="geometry" />
        </mxCell>
        <mxCell id="qRS98BWadA9C0YuERfwC-161" style="edgeStyle=orthogonalEdgeStyle;rounded=1;sketch=0;jumpStyle=none;orthogonalLoop=1;jettySize=auto;html=1;exitX=1;exitY=0.5;exitDx=0;exitDy=0;shadow=0;fontFamily=Comic Sans MS;fontColor=#EA6B66;startArrow=oval;startFill=1;endArrow=classic;endFill=1;startSize=6;endSize=6;targetPerimeterSpacing=0;strokeColor=#b85450;strokeWidth=1;entryX=0.5;entryY=1;entryDx=0;entryDy=0;fillColor=#f8cecc;" parent="1" source="qRS98BWadA9C0YuERfwC-162" target="qRS98BWadA9C0YuERfwC-153" edge="1">
          <mxGeometry relative="1" as="geometry">
            <mxPoint x="630" y="740" as="targetPoint" />
            <Array as="points">
              <mxPoint x="630" y="750" />
              <mxPoint x="225" y="750" />
            </Array>
          </mxGeometry>
        </mxCell>
        <mxCell id="qRS98BWadA9C0YuERfwC-162" value="&lt;font color=&quot;#ea6b66&quot;&gt;random&lt;/font&gt;" style="text;html=1;strokeColor=none;fillColor=none;align=center;verticalAlign=middle;whiteSpace=wrap;rounded=0;shadow=0;sketch=0;fontFamily=Comic Sans MS;" parent="1" vertex="1">
          <mxGeometry x="560" y="670" width="70" height="20" as="geometry" />
        </mxCell>
        <mxCell id="qRS98BWadA9C0YuERfwC-163" value="&lt;font color=&quot;#ea6b66&quot;&gt;13&lt;/font&gt;" style="text;html=1;strokeColor=none;fillColor=none;align=center;verticalAlign=middle;whiteSpace=wrap;rounded=0;shadow=0;sketch=0;fontFamily=Comic Sans MS;" parent="1" vertex="1">
          <mxGeometry x="530" y="650" width="30" height="40" as="geometry" />
        </mxCell>
        <mxCell id="qRS98BWadA9C0YuERfwC-164" value="" style="shape=cube;whiteSpace=wrap;html=1;boundedLbl=1;backgroundOutline=1;darkOpacity=0.05;darkOpacity2=0.1;shadow=0;sketch=0;strokeWidth=1;size=10;fillColor=#f8cecc;strokeColor=#b85450;" parent="1" vertex="1">
          <mxGeometry x="840" y="640" width="120" height="50" as="geometry" />
        </mxCell>
        <mxCell id="qRS98BWadA9C0YuERfwC-165" value="" style="endArrow=none;html=1;rounded=0;sketch=0;strokeWidth=1;exitX=0.246;exitY=0;exitDx=0;exitDy=0;exitPerimeter=0;fillColor=#f8cecc;strokeColor=#b85450;" parent="1" source="qRS98BWadA9C0YuERfwC-164" edge="1">
          <mxGeometry width="50" height="50" relative="1" as="geometry">
            <mxPoint x="889" y="640" as="sourcePoint" />
            <mxPoint x="880" y="650" as="targetPoint" />
          </mxGeometry>
        </mxCell>
        <mxCell id="qRS98BWadA9C0YuERfwC-166" value="" style="endArrow=none;html=1;rounded=0;sketch=0;strokeWidth=1;fillColor=#f8cecc;strokeColor=#b85450;" parent="1" edge="1">
          <mxGeometry width="50" height="50" relative="1" as="geometry">
            <mxPoint x="880" y="690" as="sourcePoint" />
            <mxPoint x="880" y="650" as="targetPoint" />
          </mxGeometry>
        </mxCell>
        <mxCell id="qRS98BWadA9C0YuERfwC-167" value="" style="endArrow=none;html=1;rounded=0;sketch=0;strokeWidth=1;entryX=0;entryY=0;entryDx=120;entryDy=30;entryPerimeter=0;fillColor=#f8cecc;strokeColor=#b85450;" parent="1" target="qRS98BWadA9C0YuERfwC-164" edge="1">
          <mxGeometry width="50" height="50" relative="1" as="geometry">
            <mxPoint x="880" y="670" as="sourcePoint" />
            <mxPoint x="1010" y="610" as="targetPoint" />
          </mxGeometry>
        </mxCell>
        <mxCell id="qRS98BWadA9C0YuERfwC-168" style="edgeStyle=orthogonalEdgeStyle;rounded=1;sketch=0;jumpStyle=line;orthogonalLoop=1;jettySize=auto;html=1;exitX=1;exitY=0.5;exitDx=0;exitDy=0;entryX=0;entryY=0;entryDx=0;entryDy=20;entryPerimeter=0;shadow=0;fontFamily=Comic Sans MS;fontColor=#EA6B66;startArrow=oval;startFill=1;startSize=6;endSize=6;targetPerimeterSpacing=0;strokeColor=#000A20;strokeWidth=1;" parent="1" source="qRS98BWadA9C0YuERfwC-169" edge="1">
          <mxGeometry relative="1" as="geometry">
            <mxPoint x="1000" y="660" as="targetPoint" />
          </mxGeometry>
        </mxCell>
        <mxCell id="qRS98BWadA9C0YuERfwC-169" value="&lt;font face=&quot;Comic Sans MS&quot; color=&quot;#ea6b66&quot;&gt;next&lt;/font&gt;" style="text;html=1;strokeColor=none;fillColor=none;align=center;verticalAlign=middle;whiteSpace=wrap;rounded=0;shadow=0;sketch=0;" parent="1" vertex="1">
          <mxGeometry x="880" y="650" width="70" height="20" as="geometry" />
        </mxCell>
        <mxCell id="qRS98BWadA9C0YuERfwC-170" style="edgeStyle=orthogonalEdgeStyle;rounded=1;sketch=0;jumpStyle=none;orthogonalLoop=1;jettySize=auto;html=1;exitX=1;exitY=0.5;exitDx=0;exitDy=0;shadow=0;fontFamily=Comic Sans MS;fontColor=#EA6B66;startArrow=oval;startFill=1;endArrow=classic;endFill=1;startSize=6;endSize=6;targetPerimeterSpacing=0;strokeColor=#b85450;strokeWidth=1;entryX=0.5;entryY=1;entryDx=0;entryDy=0;fillColor=#f8cecc;" parent="1" source="qRS98BWadA9C0YuERfwC-171" target="qRS98BWadA9C0YuERfwC-163" edge="1">
          <mxGeometry relative="1" as="geometry">
            <mxPoint x="930" y="780" as="targetPoint" />
            <Array as="points">
              <mxPoint x="950" y="710" />
              <mxPoint x="545" y="710" />
            </Array>
          </mxGeometry>
        </mxCell>
        <mxCell id="qRS98BWadA9C0YuERfwC-171" value="&lt;font color=&quot;#ea6b66&quot;&gt;random&lt;/font&gt;" style="text;html=1;strokeColor=none;fillColor=none;align=center;verticalAlign=middle;whiteSpace=wrap;rounded=0;shadow=0;sketch=0;fontFamily=Comic Sans MS;" parent="1" vertex="1">
          <mxGeometry x="880" y="670" width="70" height="20" as="geometry" />
        </mxCell>
        <mxCell id="qRS98BWadA9C0YuERfwC-172" value="&lt;font color=&quot;#ea6b66&quot;&gt;11&lt;/font&gt;" style="text;html=1;strokeColor=none;fillColor=none;align=center;verticalAlign=middle;whiteSpace=wrap;rounded=0;shadow=0;sketch=0;fontFamily=Comic Sans MS;" parent="1" vertex="1">
          <mxGeometry x="850" y="650" width="30" height="40" as="geometry" />
        </mxCell>
        <mxCell id="qRS98BWadA9C0YuERfwC-173" style="edgeStyle=orthogonalEdgeStyle;rounded=1;sketch=0;jumpStyle=line;orthogonalLoop=1;jettySize=auto;html=1;exitX=1;exitY=0.5;exitDx=0;exitDy=0;entryX=0;entryY=0;entryDx=0;entryDy=20;entryPerimeter=0;shadow=0;fontFamily=Comic Sans MS;fontColor=#EA6B66;startArrow=oval;startFill=1;startSize=6;endSize=6;targetPerimeterSpacing=0;strokeColor=#000A20;strokeWidth=1;" parent="1" target="qRS98BWadA9C0YuERfwC-174" edge="1">
          <mxGeometry relative="1" as="geometry">
            <mxPoint x="1109.9999999999995" y="660" as="sourcePoint" />
          </mxGeometry>
        </mxCell>
        <mxCell id="qRS98BWadA9C0YuERfwC-174" value="null" style="shape=cube;whiteSpace=wrap;html=1;boundedLbl=1;backgroundOutline=1;darkOpacity=0.05;darkOpacity2=0.1;shadow=0;sketch=0;fontFamily=Comic Sans MS;fontColor=#333333;strokeColor=#666666;strokeWidth=1;size=10;fillColor=#f5f5f5;" parent="1" vertex="1">
          <mxGeometry x="1160" y="640" width="50" height="50" as="geometry" />
        </mxCell>
        <mxCell id="qRS98BWadA9C0YuERfwC-175" value="" style="shape=cube;whiteSpace=wrap;html=1;boundedLbl=1;backgroundOutline=1;darkOpacity=0.05;darkOpacity2=0.1;shadow=0;sketch=0;strokeWidth=1;size=10;fillColor=#ffe6cc;strokeColor=#d79b00;" parent="1" vertex="1">
          <mxGeometry x="360" y="640" width="120" height="50" as="geometry" />
        </mxCell>
        <mxCell id="qRS98BWadA9C0YuERfwC-176" value="" style="endArrow=none;html=1;rounded=0;sketch=0;strokeWidth=1;exitX=0.246;exitY=0;exitDx=0;exitDy=0;exitPerimeter=0;fillColor=#ffe6cc;strokeColor=#d79b00;" parent="1" source="qRS98BWadA9C0YuERfwC-175" edge="1">
          <mxGeometry width="50" height="50" relative="1" as="geometry">
            <mxPoint x="409" y="640" as="sourcePoint" />
            <mxPoint x="400" y="650" as="targetPoint" />
          </mxGeometry>
        </mxCell>
        <mxCell id="qRS98BWadA9C0YuERfwC-177" value="" style="endArrow=none;html=1;rounded=0;sketch=0;strokeWidth=1;fillColor=#ffe6cc;strokeColor=#d79b00;" parent="1" edge="1">
          <mxGeometry width="50" height="50" relative="1" as="geometry">
            <mxPoint x="400" y="690" as="sourcePoint" />
            <mxPoint x="400" y="650" as="targetPoint" />
          </mxGeometry>
        </mxCell>
        <mxCell id="qRS98BWadA9C0YuERfwC-178" value="" style="endArrow=none;html=1;rounded=0;sketch=0;strokeWidth=1;entryX=0;entryY=0;entryDx=120;entryDy=30;entryPerimeter=0;fillColor=#ffe6cc;strokeColor=#d79b00;" parent="1" target="qRS98BWadA9C0YuERfwC-175" edge="1">
          <mxGeometry width="50" height="50" relative="1" as="geometry">
            <mxPoint x="400" y="670" as="sourcePoint" />
            <mxPoint x="530" y="610" as="targetPoint" />
          </mxGeometry>
        </mxCell>
        <mxCell id="qRS98BWadA9C0YuERfwC-179" style="edgeStyle=orthogonalEdgeStyle;rounded=1;sketch=0;jumpStyle=none;orthogonalLoop=1;jettySize=auto;html=1;exitX=1;exitY=0.5;exitDx=0;exitDy=0;shadow=0;fontFamily=Comic Sans MS;fontColor=#EA6B66;startArrow=oval;startFill=1;startSize=6;endSize=6;targetPerimeterSpacing=0;strokeColor=#000A20;strokeWidth=1;entryX=0;entryY=0;entryDx=0;entryDy=20;entryPerimeter=0;" parent="1" source="qRS98BWadA9C0YuERfwC-180" target="qRS98BWadA9C0YuERfwC-154" edge="1">
          <mxGeometry relative="1" as="geometry">
            <mxPoint x="500" y="660" as="targetPoint" />
          </mxGeometry>
        </mxCell>
        <mxCell id="qRS98BWadA9C0YuERfwC-180" value="&lt;font face=&quot;Comic Sans MS&quot; color=&quot;#ea6b66&quot;&gt;next&lt;/font&gt;" style="text;html=1;strokeColor=none;fillColor=none;align=center;verticalAlign=middle;whiteSpace=wrap;rounded=0;shadow=0;sketch=0;" parent="1" vertex="1">
          <mxGeometry x="400" y="650" width="70" height="20" as="geometry" />
        </mxCell>
        <mxCell id="qRS98BWadA9C0YuERfwC-181" style="rounded=1;sketch=0;jumpStyle=none;orthogonalLoop=1;jettySize=auto;html=1;exitX=1;exitY=0.5;exitDx=0;exitDy=0;shadow=0;fontFamily=Comic Sans MS;fontColor=#EA6B66;startArrow=oval;startFill=1;startSize=6;endSize=6;targetPerimeterSpacing=0;strokeColor=#d6b656;strokeWidth=1;endArrow=classic;endFill=1;fillColor=#fff2cc;edgeStyle=orthogonalEdgeStyle;" parent="1" source="qRS98BWadA9C0YuERfwC-182" edge="1">
          <mxGeometry relative="1" as="geometry">
            <mxPoint x="1200" y="690" as="targetPoint" />
            <Array as="points">
              <mxPoint x="470" y="810" />
              <mxPoint x="1200" y="810" />
              <mxPoint x="1200" y="690" />
            </Array>
          </mxGeometry>
        </mxCell>
        <mxCell id="qRS98BWadA9C0YuERfwC-182" value="&lt;font color=&quot;#ea6b66&quot;&gt;random&lt;/font&gt;" style="text;html=1;strokeColor=none;fillColor=none;align=center;verticalAlign=middle;whiteSpace=wrap;rounded=0;shadow=0;sketch=0;fontFamily=Comic Sans MS;" parent="1" vertex="1">
          <mxGeometry x="400" y="670" width="70" height="20" as="geometry" />
        </mxCell>
        <mxCell id="qRS98BWadA9C0YuERfwC-183" value="&lt;font color=&quot;#ea6b66&quot;&gt;7&lt;/font&gt;" style="text;html=1;strokeColor=none;fillColor=none;align=center;verticalAlign=middle;whiteSpace=wrap;rounded=0;shadow=0;sketch=0;fontFamily=Comic Sans MS;" parent="1" vertex="1">
          <mxGeometry x="370" y="650" width="30" height="40" as="geometry" />
        </mxCell>
        <mxCell id="qRS98BWadA9C0YuERfwC-184" value="" style="shape=cube;whiteSpace=wrap;html=1;boundedLbl=1;backgroundOutline=1;darkOpacity=0.05;darkOpacity2=0.1;shadow=0;sketch=0;strokeWidth=1;size=10;fillColor=#ffe6cc;strokeColor=#d79b00;" parent="1" vertex="1">
          <mxGeometry x="680" y="640" width="120" height="50" as="geometry" />
        </mxCell>
        <mxCell id="qRS98BWadA9C0YuERfwC-185" value="" style="endArrow=none;html=1;rounded=0;sketch=0;strokeWidth=1;exitX=0.246;exitY=0;exitDx=0;exitDy=0;exitPerimeter=0;fillColor=#ffe6cc;strokeColor=#d79b00;" parent="1" source="qRS98BWadA9C0YuERfwC-184" edge="1">
          <mxGeometry width="50" height="50" relative="1" as="geometry">
            <mxPoint x="729" y="640" as="sourcePoint" />
            <mxPoint x="720" y="650" as="targetPoint" />
          </mxGeometry>
        </mxCell>
        <mxCell id="qRS98BWadA9C0YuERfwC-186" value="" style="endArrow=none;html=1;rounded=0;sketch=0;strokeWidth=1;fillColor=#ffe6cc;strokeColor=#d79b00;" parent="1" edge="1">
          <mxGeometry width="50" height="50" relative="1" as="geometry">
            <mxPoint x="720" y="690" as="sourcePoint" />
            <mxPoint x="720" y="650" as="targetPoint" />
          </mxGeometry>
        </mxCell>
        <mxCell id="qRS98BWadA9C0YuERfwC-187" value="" style="endArrow=none;html=1;rounded=0;sketch=0;strokeWidth=1;entryX=0;entryY=0;entryDx=120;entryDy=30;entryPerimeter=0;fillColor=#ffe6cc;strokeColor=#d79b00;" parent="1" target="qRS98BWadA9C0YuERfwC-184" edge="1">
          <mxGeometry width="50" height="50" relative="1" as="geometry">
            <mxPoint x="720" y="670" as="sourcePoint" />
            <mxPoint x="850" y="610" as="targetPoint" />
          </mxGeometry>
        </mxCell>
        <mxCell id="qRS98BWadA9C0YuERfwC-188" style="edgeStyle=orthogonalEdgeStyle;rounded=1;sketch=0;jumpStyle=none;orthogonalLoop=1;jettySize=auto;html=1;exitX=1;exitY=0.5;exitDx=0;exitDy=0;entryX=0;entryY=0;entryDx=0;entryDy=20;entryPerimeter=0;shadow=0;fontFamily=Comic Sans MS;fontColor=#EA6B66;startArrow=oval;startFill=1;endArrow=classic;endFill=1;startSize=6;endSize=6;targetPerimeterSpacing=0;strokeColor=#000A20;strokeWidth=1;" parent="1" source="qRS98BWadA9C0YuERfwC-189" target="qRS98BWadA9C0YuERfwC-164" edge="1">
          <mxGeometry relative="1" as="geometry" />
        </mxCell>
        <mxCell id="qRS98BWadA9C0YuERfwC-189" value="&lt;font face=&quot;Comic Sans MS&quot; color=&quot;#ea6b66&quot;&gt;next&lt;/font&gt;" style="text;html=1;strokeColor=none;fillColor=none;align=center;verticalAlign=middle;whiteSpace=wrap;rounded=0;shadow=0;sketch=0;" parent="1" vertex="1">
          <mxGeometry x="720" y="650" width="70" height="20" as="geometry" />
        </mxCell>
        <mxCell id="qRS98BWadA9C0YuERfwC-190" style="edgeStyle=orthogonalEdgeStyle;rounded=1;sketch=0;jumpStyle=none;orthogonalLoop=1;jettySize=auto;html=1;exitX=1;exitY=0.5;exitDx=0;exitDy=0;shadow=0;fontFamily=Comic Sans MS;fontColor=#EA6B66;startArrow=oval;startFill=1;endArrow=classic;endFill=1;startSize=6;endSize=6;targetPerimeterSpacing=0;strokeWidth=1;fillColor=#fff2cc;strokeColor=#d6b656;entryX=0.5;entryY=1;entryDx=0;entryDy=0;" parent="1" source="qRS98BWadA9C0YuERfwC-191" target="qRS98BWadA9C0YuERfwC-183" edge="1">
          <mxGeometry relative="1" as="geometry">
            <mxPoint x="380" y="710" as="targetPoint" />
            <Array as="points">
              <mxPoint x="790" y="770" />
              <mxPoint x="385" y="770" />
            </Array>
          </mxGeometry>
        </mxCell>
        <mxCell id="qRS98BWadA9C0YuERfwC-191" value="&lt;font color=&quot;#ea6b66&quot;&gt;random&lt;/font&gt;" style="text;html=1;strokeColor=none;fillColor=none;align=center;verticalAlign=middle;whiteSpace=wrap;rounded=0;shadow=0;sketch=0;fontFamily=Comic Sans MS;" parent="1" vertex="1">
          <mxGeometry x="720" y="670" width="70" height="20" as="geometry" />
        </mxCell>
        <mxCell id="qRS98BWadA9C0YuERfwC-192" value="&lt;font color=&quot;#ea6b66&quot;&gt;13&lt;/font&gt;" style="text;html=1;strokeColor=none;fillColor=none;align=center;verticalAlign=middle;whiteSpace=wrap;rounded=0;shadow=0;sketch=0;fontFamily=Comic Sans MS;" parent="1" vertex="1">
          <mxGeometry x="690" y="650" width="30" height="40" as="geometry" />
        </mxCell>
        <mxCell id="qRS98BWadA9C0YuERfwC-193" value="" style="shape=cube;whiteSpace=wrap;html=1;boundedLbl=1;backgroundOutline=1;darkOpacity=0.05;darkOpacity2=0.1;shadow=0;sketch=0;strokeWidth=1;size=10;fillColor=#ffe6cc;strokeColor=#d79b00;" parent="1" vertex="1">
          <mxGeometry x="1000" y="640" width="120" height="50" as="geometry" />
        </mxCell>
        <mxCell id="qRS98BWadA9C0YuERfwC-194" value="" style="endArrow=none;html=1;rounded=0;sketch=0;strokeWidth=1;exitX=0.246;exitY=0;exitDx=0;exitDy=0;exitPerimeter=0;fillColor=#ffe6cc;strokeColor=#d79b00;" parent="1" source="qRS98BWadA9C0YuERfwC-193" edge="1">
          <mxGeometry width="50" height="50" relative="1" as="geometry">
            <mxPoint x="1049" y="640" as="sourcePoint" />
            <mxPoint x="1040" y="650" as="targetPoint" />
          </mxGeometry>
        </mxCell>
        <mxCell id="qRS98BWadA9C0YuERfwC-195" value="" style="endArrow=none;html=1;rounded=0;sketch=0;strokeWidth=1;fillColor=#ffe6cc;strokeColor=#d79b00;" parent="1" edge="1">
          <mxGeometry width="50" height="50" relative="1" as="geometry">
            <mxPoint x="1040" y="690" as="sourcePoint" />
            <mxPoint x="1040" y="650" as="targetPoint" />
          </mxGeometry>
        </mxCell>
        <mxCell id="qRS98BWadA9C0YuERfwC-196" value="" style="endArrow=none;html=1;rounded=0;sketch=0;strokeWidth=1;entryX=0;entryY=0;entryDx=120;entryDy=30;entryPerimeter=0;fillColor=#ffe6cc;strokeColor=#d79b00;" parent="1" target="qRS98BWadA9C0YuERfwC-193" edge="1">
          <mxGeometry width="50" height="50" relative="1" as="geometry">
            <mxPoint x="1040" y="670" as="sourcePoint" />
            <mxPoint x="1170" y="610" as="targetPoint" />
          </mxGeometry>
        </mxCell>
        <mxCell id="qRS98BWadA9C0YuERfwC-197" value="&lt;font face=&quot;Comic Sans MS&quot; color=&quot;#ea6b66&quot;&gt;next&lt;/font&gt;" style="text;html=1;strokeColor=none;fillColor=none;align=center;verticalAlign=middle;whiteSpace=wrap;rounded=0;shadow=0;sketch=0;" parent="1" vertex="1">
          <mxGeometry x="1040" y="650" width="70" height="20" as="geometry" />
        </mxCell>
        <mxCell id="qRS98BWadA9C0YuERfwC-198" style="edgeStyle=orthogonalEdgeStyle;rounded=1;sketch=0;jumpStyle=none;orthogonalLoop=1;jettySize=auto;html=1;exitX=1;exitY=0.5;exitDx=0;exitDy=0;shadow=0;fontFamily=Comic Sans MS;fontColor=#EA6B66;startArrow=oval;startFill=1;endArrow=classic;endFill=1;startSize=6;endSize=6;targetPerimeterSpacing=0;strokeColor=#d6b656;strokeWidth=1;fillColor=#fff2cc;entryX=0.5;entryY=1;entryDx=0;entryDy=0;" parent="1" source="qRS98BWadA9C0YuERfwC-199" target="qRS98BWadA9C0YuERfwC-192" edge="1">
          <mxGeometry relative="1" as="geometry">
            <mxPoint x="940" y="710" as="targetPoint" />
            <Array as="points">
              <mxPoint x="1110" y="790" />
              <mxPoint x="705" y="790" />
            </Array>
          </mxGeometry>
        </mxCell>
        <mxCell id="qRS98BWadA9C0YuERfwC-199" value="&lt;font color=&quot;#ea6b66&quot;&gt;random&lt;/font&gt;" style="text;html=1;strokeColor=none;fillColor=none;align=center;verticalAlign=middle;whiteSpace=wrap;rounded=0;shadow=0;sketch=0;fontFamily=Comic Sans MS;" parent="1" vertex="1">
          <mxGeometry x="1040" y="670" width="70" height="20" as="geometry" />
        </mxCell>
        <mxCell id="qRS98BWadA9C0YuERfwC-200" value="&lt;font color=&quot;#ea6b66&quot;&gt;11&lt;/font&gt;" style="text;html=1;strokeColor=none;fillColor=none;align=center;verticalAlign=middle;whiteSpace=wrap;rounded=0;shadow=0;sketch=0;fontFamily=Comic Sans MS;" parent="1" vertex="1">
          <mxGeometry x="1010" y="650" width="30" height="40" as="geometry" />
        </mxCell>
      </root>
    </mxGraphModel>
  </diagram>
</mxfile>
